<mxfile host="app.diagrams.net" modified="2021-08-12T11:48:55.714Z" agent="5.0 (Windows NT 10.0; Win64; x64) AppleWebKit/537.36 (KHTML, like Gecko) Chrome/92.0.4515.107 Safari/537.36" etag="pZ_UD6J8xklbhxyGzn5p" version="14.9.3" type="github">
  <diagram name="Page-1" id="0783ab3e-0a74-02c8-0abd-f7b4e66b4bec">
    <mxGraphModel dx="1038" dy="547" grid="1" gridSize="10" guides="1" tooltips="1" connect="1" arrows="1" fold="1" page="1" pageScale="1" pageWidth="850" pageHeight="1100" background="none" math="0" shadow="0">
      <root>
        <mxCell id="0" />
        <mxCell id="1" parent="0" />
        <mxCell id="s8xCWeBZUh2nm2cPaXJq-18" value="" style="rounded=0;whiteSpace=wrap;html=1;fillColor=none;" vertex="1" parent="1">
          <mxGeometry x="74" y="310" width="130" height="210" as="geometry" />
        </mxCell>
        <mxCell id="s8xCWeBZUh2nm2cPaXJq-2" value="" style="rounded=0;whiteSpace=wrap;html=1;fillColor=none;" vertex="1" parent="1">
          <mxGeometry x="120" y="20" width="640" height="110" as="geometry" />
        </mxCell>
        <mxCell id="s8xCWeBZUh2nm2cPaXJq-1" value="" style="fontColor=#0066CC;verticalAlign=top;verticalLabelPosition=bottom;labelPosition=center;align=center;html=1;outlineConnect=0;fillColor=#CCCCCC;strokeColor=#6881B3;gradientColor=none;gradientDirection=north;strokeWidth=2;shape=mxgraph.networks.patch_panel;" vertex="1" parent="1">
          <mxGeometry x="170" y="70" width="100" height="35" as="geometry" />
        </mxCell>
        <mxCell id="s8xCWeBZUh2nm2cPaXJq-3" value="ADP+生产应用" style="text;html=1;strokeColor=none;fillColor=none;align=center;verticalAlign=middle;whiteSpace=wrap;rounded=0;" vertex="1" parent="1">
          <mxGeometry x="175" y="40" width="90" height="20" as="geometry" />
        </mxCell>
        <mxCell id="s8xCWeBZUh2nm2cPaXJq-5" value="" style="fontColor=#0066CC;verticalAlign=top;verticalLabelPosition=bottom;labelPosition=center;align=center;html=1;outlineConnect=0;fillColor=#CCCCCC;strokeColor=#6881B3;gradientColor=none;gradientDirection=north;strokeWidth=2;shape=mxgraph.networks.storage;" vertex="1" parent="1">
          <mxGeometry x="652" y="50" width="60" height="70" as="geometry" />
        </mxCell>
        <mxCell id="s8xCWeBZUh2nm2cPaXJq-6" value="数据库服务器" style="text;html=1;strokeColor=none;fillColor=none;align=center;verticalAlign=middle;whiteSpace=wrap;rounded=0;" vertex="1" parent="1">
          <mxGeometry x="642" y="30" width="90" height="20" as="geometry" />
        </mxCell>
        <mxCell id="s8xCWeBZUh2nm2cPaXJq-7" value="" style="fontColor=#0066CC;verticalAlign=top;verticalLabelPosition=bottom;labelPosition=center;align=center;html=1;outlineConnect=0;fillColor=#CCCCCC;strokeColor=#6881B3;gradientColor=none;gradientDirection=north;strokeWidth=2;shape=mxgraph.networks.patch_panel;" vertex="1" parent="1">
          <mxGeometry x="288" y="70" width="100" height="35" as="geometry" />
        </mxCell>
        <mxCell id="s8xCWeBZUh2nm2cPaXJq-8" value="PHD服务器" style="text;html=1;strokeColor=none;fillColor=none;align=center;verticalAlign=middle;whiteSpace=wrap;rounded=0;" vertex="1" parent="1">
          <mxGeometry x="293" y="40" width="90" height="20" as="geometry" />
        </mxCell>
        <mxCell id="s8xCWeBZUh2nm2cPaXJq-9" value="&lt;font style=&quot;font-size: 18px&quot;&gt;炼&lt;br&gt;化&lt;br&gt;公&lt;br&gt;司&lt;/font&gt;" style="text;html=1;strokeColor=none;fillColor=none;align=center;verticalAlign=middle;whiteSpace=wrap;rounded=0;" vertex="1" parent="1">
          <mxGeometry x="120" y="25" width="40" height="100" as="geometry" />
        </mxCell>
        <mxCell id="s8xCWeBZUh2nm2cPaXJq-10" value="" style="fontColor=#0066CC;verticalAlign=top;verticalLabelPosition=bottom;labelPosition=center;align=center;html=1;outlineConnect=0;fillColor=#CCCCCC;strokeColor=#6881B3;gradientColor=none;gradientDirection=north;strokeWidth=2;shape=mxgraph.networks.patch_panel;" vertex="1" parent="1">
          <mxGeometry x="408" y="70" width="100" height="35" as="geometry" />
        </mxCell>
        <mxCell id="s8xCWeBZUh2nm2cPaXJq-11" value="流程图服务器" style="text;html=1;strokeColor=none;fillColor=none;align=center;verticalAlign=middle;whiteSpace=wrap;rounded=0;" vertex="1" parent="1">
          <mxGeometry x="413" y="40" width="90" height="20" as="geometry" />
        </mxCell>
        <mxCell id="s8xCWeBZUh2nm2cPaXJq-14" value="" style="fontColor=#0066CC;verticalAlign=top;verticalLabelPosition=bottom;labelPosition=center;align=center;html=1;outlineConnect=0;fillColor=#CCCCCC;strokeColor=#6881B3;gradientColor=none;gradientDirection=north;strokeWidth=2;shape=mxgraph.networks.patch_panel;" vertex="1" parent="1">
          <mxGeometry x="528" y="70" width="100" height="35" as="geometry" />
        </mxCell>
        <mxCell id="s8xCWeBZUh2nm2cPaXJq-15" value="报表服务器" style="text;html=1;strokeColor=none;fillColor=none;align=center;verticalAlign=middle;whiteSpace=wrap;rounded=0;" vertex="1" parent="1">
          <mxGeometry x="533" y="40" width="90" height="20" as="geometry" />
        </mxCell>
        <mxCell id="s8xCWeBZUh2nm2cPaXJq-16" value="&lt;font color=&quot;#000000&quot;&gt;&lt;b&gt;VPN&lt;/b&gt;&lt;/font&gt;" style="html=1;outlineConnect=0;fillColor=#CCCCCC;strokeColor=#6881B3;gradientColor=none;gradientDirection=north;strokeWidth=2;shape=mxgraph.networks.bus;gradientColor=none;gradientDirection=north;fontColor=#ffffff;perimeter=backbonePerimeter;backboneSize=20;" vertex="1" parent="1">
          <mxGeometry x="70" y="210" width="730" height="21.16" as="geometry" />
        </mxCell>
        <mxCell id="s8xCWeBZUh2nm2cPaXJq-17" value="" style="shape=flexArrow;endArrow=classic;startArrow=classic;html=1;entryX=0.5;entryY=1;entryDx=0;entryDy=0;strokeColor=#663300;fillColor=#663300;" edge="1" parent="1">
          <mxGeometry width="100" height="100" relative="1" as="geometry">
            <mxPoint x="434" y="210.58000000000004" as="sourcePoint" />
            <mxPoint x="434" y="130" as="targetPoint" />
          </mxGeometry>
        </mxCell>
        <mxCell id="s8xCWeBZUh2nm2cPaXJq-19" value="" style="fontColor=#0066CC;verticalAlign=top;verticalLabelPosition=bottom;labelPosition=center;align=center;html=1;outlineConnect=0;fillColor=#CCCCCC;strokeColor=#6881B3;gradientColor=none;gradientDirection=north;strokeWidth=2;shape=mxgraph.networks.patch_panel;" vertex="1" parent="1">
          <mxGeometry x="84" y="350" width="100" height="35" as="geometry" />
        </mxCell>
        <mxCell id="s8xCWeBZUh2nm2cPaXJq-20" value="iweb应用服务器" style="text;html=1;strokeColor=none;fillColor=none;align=center;verticalAlign=middle;whiteSpace=wrap;rounded=0;" vertex="1" parent="1">
          <mxGeometry x="89" y="320" width="90" height="20" as="geometry" />
        </mxCell>
        <mxCell id="s8xCWeBZUh2nm2cPaXJq-24" value="" style="group" vertex="1" connectable="0" parent="1">
          <mxGeometry x="74" y="563.5" width="130" height="100" as="geometry" />
        </mxCell>
        <mxCell id="s8xCWeBZUh2nm2cPaXJq-21" value="" style="fontColor=#0066CC;verticalAlign=top;verticalLabelPosition=bottom;labelPosition=center;align=center;html=1;outlineConnect=0;fillColor=#CCCCCC;strokeColor=#6881B3;gradientColor=none;gradientDirection=north;strokeWidth=2;shape=mxgraph.networks.patch_panel;" vertex="1" parent="s8xCWeBZUh2nm2cPaXJq-24">
          <mxGeometry x="15" y="52.5" width="100" height="35" as="geometry" />
        </mxCell>
        <mxCell id="s8xCWeBZUh2nm2cPaXJq-25" value="" style="group" vertex="1" connectable="0" parent="s8xCWeBZUh2nm2cPaXJq-24">
          <mxGeometry width="130" height="100" as="geometry" />
        </mxCell>
        <mxCell id="s8xCWeBZUh2nm2cPaXJq-26" value="" style="group" vertex="1" connectable="0" parent="s8xCWeBZUh2nm2cPaXJq-25">
          <mxGeometry y="-1" width="130" height="100" as="geometry" />
        </mxCell>
        <mxCell id="s8xCWeBZUh2nm2cPaXJq-23" value="" style="rounded=0;whiteSpace=wrap;html=1;fillColor=none;" vertex="1" parent="s8xCWeBZUh2nm2cPaXJq-26">
          <mxGeometry width="130" height="100" as="geometry" />
        </mxCell>
        <mxCell id="s8xCWeBZUh2nm2cPaXJq-22" value="PHD服务器" style="text;html=1;strokeColor=none;fillColor=none;align=center;verticalAlign=middle;whiteSpace=wrap;rounded=0;" vertex="1" parent="s8xCWeBZUh2nm2cPaXJq-26">
          <mxGeometry x="25" y="23.5" width="90" height="20" as="geometry" />
        </mxCell>
        <mxCell id="s8xCWeBZUh2nm2cPaXJq-29" value="" style="fontColor=#0066CC;verticalAlign=top;verticalLabelPosition=bottom;labelPosition=center;align=center;html=1;outlineConnect=0;fillColor=#CCCCCC;strokeColor=#6881B3;gradientColor=none;gradientDirection=north;strokeWidth=2;shape=mxgraph.networks.storage;" vertex="1" parent="1">
          <mxGeometry x="106" y="440" width="60" height="70" as="geometry" />
        </mxCell>
        <mxCell id="s8xCWeBZUh2nm2cPaXJq-30" value="数据库服务器" style="text;html=1;strokeColor=none;fillColor=none;align=center;verticalAlign=middle;whiteSpace=wrap;rounded=0;" vertex="1" parent="1">
          <mxGeometry x="96" y="420" width="90" height="20" as="geometry" />
        </mxCell>
        <mxCell id="s8xCWeBZUh2nm2cPaXJq-32" style="edgeStyle=orthogonalEdgeStyle;rounded=0;orthogonalLoop=1;jettySize=auto;html=1;strokeColor=#663300;fillColor=#663300;strokeWidth=5;" edge="1" parent="1" source="s8xCWeBZUh2nm2cPaXJq-23" target="s8xCWeBZUh2nm2cPaXJq-18">
          <mxGeometry relative="1" as="geometry" />
        </mxCell>
        <mxCell id="s8xCWeBZUh2nm2cPaXJq-36" value="" style="endArrow=none;dashed=1;html=1;dashPattern=1 3;strokeWidth=2;fillColor=#663300;" edge="1" parent="1">
          <mxGeometry width="50" height="50" relative="1" as="geometry">
            <mxPoint x="74" y="412" as="sourcePoint" />
            <mxPoint x="204" y="412" as="targetPoint" />
          </mxGeometry>
        </mxCell>
        <mxCell id="s8xCWeBZUh2nm2cPaXJq-37" value="&lt;b&gt;&lt;font style=&quot;font-size: 14px&quot;&gt;延安炼油厂&lt;/font&gt;&lt;/b&gt;" style="text;html=1;strokeColor=none;fillColor=none;align=center;verticalAlign=middle;whiteSpace=wrap;rounded=0;" vertex="1" parent="1">
          <mxGeometry x="99" y="680" width="80" height="20" as="geometry" />
        </mxCell>
        <mxCell id="s8xCWeBZUh2nm2cPaXJq-38" value="" style="rounded=0;whiteSpace=wrap;html=1;fillColor=none;" vertex="1" parent="1">
          <mxGeometry x="224" y="310" width="130" height="210" as="geometry" />
        </mxCell>
        <mxCell id="s8xCWeBZUh2nm2cPaXJq-39" value="" style="fontColor=#0066CC;verticalAlign=top;verticalLabelPosition=bottom;labelPosition=center;align=center;html=1;outlineConnect=0;fillColor=#CCCCCC;strokeColor=#6881B3;gradientColor=none;gradientDirection=north;strokeWidth=2;shape=mxgraph.networks.patch_panel;" vertex="1" parent="1">
          <mxGeometry x="234" y="350" width="100" height="35" as="geometry" />
        </mxCell>
        <mxCell id="s8xCWeBZUh2nm2cPaXJq-40" value="iweb应用服务器" style="text;html=1;strokeColor=none;fillColor=none;align=center;verticalAlign=middle;whiteSpace=wrap;rounded=0;" vertex="1" parent="1">
          <mxGeometry x="239" y="320" width="90" height="20" as="geometry" />
        </mxCell>
        <mxCell id="s8xCWeBZUh2nm2cPaXJq-41" value="" style="group" vertex="1" connectable="0" parent="1">
          <mxGeometry x="224" y="563.5" width="130" height="100" as="geometry" />
        </mxCell>
        <mxCell id="s8xCWeBZUh2nm2cPaXJq-42" value="" style="fontColor=#0066CC;verticalAlign=top;verticalLabelPosition=bottom;labelPosition=center;align=center;html=1;outlineConnect=0;fillColor=#CCCCCC;strokeColor=#6881B3;gradientColor=none;gradientDirection=north;strokeWidth=2;shape=mxgraph.networks.patch_panel;" vertex="1" parent="s8xCWeBZUh2nm2cPaXJq-41">
          <mxGeometry x="15" y="52.5" width="100" height="35" as="geometry" />
        </mxCell>
        <mxCell id="s8xCWeBZUh2nm2cPaXJq-43" value="" style="group" vertex="1" connectable="0" parent="s8xCWeBZUh2nm2cPaXJq-41">
          <mxGeometry width="130" height="100" as="geometry" />
        </mxCell>
        <mxCell id="s8xCWeBZUh2nm2cPaXJq-44" value="" style="group" vertex="1" connectable="0" parent="s8xCWeBZUh2nm2cPaXJq-43">
          <mxGeometry y="-1" width="130" height="100" as="geometry" />
        </mxCell>
        <mxCell id="s8xCWeBZUh2nm2cPaXJq-45" value="" style="rounded=0;whiteSpace=wrap;html=1;fillColor=none;" vertex="1" parent="s8xCWeBZUh2nm2cPaXJq-44">
          <mxGeometry width="130" height="100" as="geometry" />
        </mxCell>
        <mxCell id="s8xCWeBZUh2nm2cPaXJq-46" value="PHD服务器" style="text;html=1;strokeColor=none;fillColor=none;align=center;verticalAlign=middle;whiteSpace=wrap;rounded=0;" vertex="1" parent="s8xCWeBZUh2nm2cPaXJq-44">
          <mxGeometry x="25" y="23.5" width="90" height="20" as="geometry" />
        </mxCell>
        <mxCell id="s8xCWeBZUh2nm2cPaXJq-47" value="" style="fontColor=#0066CC;verticalAlign=top;verticalLabelPosition=bottom;labelPosition=center;align=center;html=1;outlineConnect=0;fillColor=#CCCCCC;strokeColor=#6881B3;gradientColor=none;gradientDirection=north;strokeWidth=2;shape=mxgraph.networks.storage;" vertex="1" parent="1">
          <mxGeometry x="256" y="440" width="60" height="70" as="geometry" />
        </mxCell>
        <mxCell id="s8xCWeBZUh2nm2cPaXJq-48" value="数据库服务器" style="text;html=1;strokeColor=none;fillColor=none;align=center;verticalAlign=middle;whiteSpace=wrap;rounded=0;" vertex="1" parent="1">
          <mxGeometry x="246" y="420" width="90" height="20" as="geometry" />
        </mxCell>
        <mxCell id="s8xCWeBZUh2nm2cPaXJq-49" style="edgeStyle=orthogonalEdgeStyle;rounded=0;orthogonalLoop=1;jettySize=auto;html=1;strokeColor=#663300;fillColor=#663300;strokeWidth=5;" edge="1" parent="1" source="s8xCWeBZUh2nm2cPaXJq-45" target="s8xCWeBZUh2nm2cPaXJq-38">
          <mxGeometry relative="1" as="geometry" />
        </mxCell>
        <mxCell id="s8xCWeBZUh2nm2cPaXJq-50" value="" style="endArrow=none;dashed=1;html=1;dashPattern=1 3;strokeWidth=2;fillColor=#663300;" edge="1" parent="1">
          <mxGeometry width="50" height="50" relative="1" as="geometry">
            <mxPoint x="224" y="412" as="sourcePoint" />
            <mxPoint x="354" y="412" as="targetPoint" />
          </mxGeometry>
        </mxCell>
        <mxCell id="s8xCWeBZUh2nm2cPaXJq-51" value="&lt;b&gt;&lt;font style=&quot;font-size: 14px&quot;&gt;延安石油化工厂&lt;/font&gt;&lt;/b&gt;" style="text;html=1;strokeColor=none;fillColor=none;align=center;verticalAlign=middle;whiteSpace=wrap;rounded=0;" vertex="1" parent="1">
          <mxGeometry x="244" y="680" width="100" height="20" as="geometry" />
        </mxCell>
        <mxCell id="s8xCWeBZUh2nm2cPaXJq-52" value="" style="rounded=0;whiteSpace=wrap;html=1;fillColor=none;" vertex="1" parent="1">
          <mxGeometry x="374" y="310" width="130" height="210" as="geometry" />
        </mxCell>
        <mxCell id="s8xCWeBZUh2nm2cPaXJq-53" value="" style="fontColor=#0066CC;verticalAlign=top;verticalLabelPosition=bottom;labelPosition=center;align=center;html=1;outlineConnect=0;fillColor=#CCCCCC;strokeColor=#6881B3;gradientColor=none;gradientDirection=north;strokeWidth=2;shape=mxgraph.networks.patch_panel;" vertex="1" parent="1">
          <mxGeometry x="384" y="350" width="100" height="35" as="geometry" />
        </mxCell>
        <mxCell id="s8xCWeBZUh2nm2cPaXJq-54" value="iweb应用服务器" style="text;html=1;strokeColor=none;fillColor=none;align=center;verticalAlign=middle;whiteSpace=wrap;rounded=0;" vertex="1" parent="1">
          <mxGeometry x="389" y="320" width="90" height="20" as="geometry" />
        </mxCell>
        <mxCell id="s8xCWeBZUh2nm2cPaXJq-55" value="" style="group" vertex="1" connectable="0" parent="1">
          <mxGeometry x="374" y="563.5" width="130" height="100" as="geometry" />
        </mxCell>
        <mxCell id="s8xCWeBZUh2nm2cPaXJq-56" value="" style="fontColor=#0066CC;verticalAlign=top;verticalLabelPosition=bottom;labelPosition=center;align=center;html=1;outlineConnect=0;fillColor=#CCCCCC;strokeColor=#6881B3;gradientColor=none;gradientDirection=north;strokeWidth=2;shape=mxgraph.networks.patch_panel;" vertex="1" parent="s8xCWeBZUh2nm2cPaXJq-55">
          <mxGeometry x="15" y="52.5" width="100" height="35" as="geometry" />
        </mxCell>
        <mxCell id="s8xCWeBZUh2nm2cPaXJq-57" value="" style="group" vertex="1" connectable="0" parent="s8xCWeBZUh2nm2cPaXJq-55">
          <mxGeometry width="130" height="100" as="geometry" />
        </mxCell>
        <mxCell id="s8xCWeBZUh2nm2cPaXJq-58" value="" style="group" vertex="1" connectable="0" parent="s8xCWeBZUh2nm2cPaXJq-57">
          <mxGeometry y="-1" width="130" height="100" as="geometry" />
        </mxCell>
        <mxCell id="s8xCWeBZUh2nm2cPaXJq-59" value="" style="rounded=0;whiteSpace=wrap;html=1;fillColor=none;" vertex="1" parent="s8xCWeBZUh2nm2cPaXJq-58">
          <mxGeometry width="130" height="100" as="geometry" />
        </mxCell>
        <mxCell id="s8xCWeBZUh2nm2cPaXJq-60" value="PHD服务器" style="text;html=1;strokeColor=none;fillColor=none;align=center;verticalAlign=middle;whiteSpace=wrap;rounded=0;" vertex="1" parent="s8xCWeBZUh2nm2cPaXJq-58">
          <mxGeometry x="25" y="23.5" width="90" height="20" as="geometry" />
        </mxCell>
        <mxCell id="s8xCWeBZUh2nm2cPaXJq-61" value="" style="fontColor=#0066CC;verticalAlign=top;verticalLabelPosition=bottom;labelPosition=center;align=center;html=1;outlineConnect=0;fillColor=#CCCCCC;strokeColor=#6881B3;gradientColor=none;gradientDirection=north;strokeWidth=2;shape=mxgraph.networks.storage;" vertex="1" parent="1">
          <mxGeometry x="406" y="440" width="60" height="70" as="geometry" />
        </mxCell>
        <mxCell id="s8xCWeBZUh2nm2cPaXJq-62" value="数据库服务器" style="text;html=1;strokeColor=none;fillColor=none;align=center;verticalAlign=middle;whiteSpace=wrap;rounded=0;" vertex="1" parent="1">
          <mxGeometry x="396" y="420" width="90" height="20" as="geometry" />
        </mxCell>
        <mxCell id="s8xCWeBZUh2nm2cPaXJq-63" style="edgeStyle=orthogonalEdgeStyle;rounded=0;orthogonalLoop=1;jettySize=auto;html=1;strokeColor=#663300;fillColor=#663300;strokeWidth=5;" edge="1" parent="1" source="s8xCWeBZUh2nm2cPaXJq-59" target="s8xCWeBZUh2nm2cPaXJq-52">
          <mxGeometry relative="1" as="geometry" />
        </mxCell>
        <mxCell id="s8xCWeBZUh2nm2cPaXJq-64" value="" style="endArrow=none;dashed=1;html=1;dashPattern=1 3;strokeWidth=2;fillColor=#663300;" edge="1" parent="1">
          <mxGeometry width="50" height="50" relative="1" as="geometry">
            <mxPoint x="374" y="412" as="sourcePoint" />
            <mxPoint x="504" y="412" as="targetPoint" />
          </mxGeometry>
        </mxCell>
        <mxCell id="s8xCWeBZUh2nm2cPaXJq-65" value="&lt;b&gt;&lt;font style=&quot;font-size: 14px&quot;&gt;永坪炼油厂&lt;/font&gt;&lt;/b&gt;" style="text;html=1;strokeColor=none;fillColor=none;align=center;verticalAlign=middle;whiteSpace=wrap;rounded=0;" vertex="1" parent="1">
          <mxGeometry x="399" y="680" width="80" height="20" as="geometry" />
        </mxCell>
        <mxCell id="s8xCWeBZUh2nm2cPaXJq-66" value="" style="rounded=0;whiteSpace=wrap;html=1;fillColor=none;" vertex="1" parent="1">
          <mxGeometry x="524" y="310" width="130" height="210" as="geometry" />
        </mxCell>
        <mxCell id="s8xCWeBZUh2nm2cPaXJq-67" value="" style="fontColor=#0066CC;verticalAlign=top;verticalLabelPosition=bottom;labelPosition=center;align=center;html=1;outlineConnect=0;fillColor=#CCCCCC;strokeColor=#6881B3;gradientColor=none;gradientDirection=north;strokeWidth=2;shape=mxgraph.networks.patch_panel;" vertex="1" parent="1">
          <mxGeometry x="534" y="350" width="100" height="35" as="geometry" />
        </mxCell>
        <mxCell id="s8xCWeBZUh2nm2cPaXJq-68" value="iweb应用服务器" style="text;html=1;strokeColor=none;fillColor=none;align=center;verticalAlign=middle;whiteSpace=wrap;rounded=0;" vertex="1" parent="1">
          <mxGeometry x="539" y="320" width="90" height="20" as="geometry" />
        </mxCell>
        <mxCell id="s8xCWeBZUh2nm2cPaXJq-69" value="" style="group" vertex="1" connectable="0" parent="1">
          <mxGeometry x="524" y="563.5" width="130" height="100" as="geometry" />
        </mxCell>
        <mxCell id="s8xCWeBZUh2nm2cPaXJq-70" value="" style="fontColor=#0066CC;verticalAlign=top;verticalLabelPosition=bottom;labelPosition=center;align=center;html=1;outlineConnect=0;fillColor=#CCCCCC;strokeColor=#6881B3;gradientColor=none;gradientDirection=north;strokeWidth=2;shape=mxgraph.networks.patch_panel;" vertex="1" parent="s8xCWeBZUh2nm2cPaXJq-69">
          <mxGeometry x="15" y="52.5" width="100" height="35" as="geometry" />
        </mxCell>
        <mxCell id="s8xCWeBZUh2nm2cPaXJq-71" value="" style="group" vertex="1" connectable="0" parent="s8xCWeBZUh2nm2cPaXJq-69">
          <mxGeometry width="130" height="100" as="geometry" />
        </mxCell>
        <mxCell id="s8xCWeBZUh2nm2cPaXJq-72" value="" style="group" vertex="1" connectable="0" parent="s8xCWeBZUh2nm2cPaXJq-71">
          <mxGeometry y="-1" width="130" height="100" as="geometry" />
        </mxCell>
        <mxCell id="s8xCWeBZUh2nm2cPaXJq-73" value="" style="rounded=0;whiteSpace=wrap;html=1;fillColor=none;" vertex="1" parent="s8xCWeBZUh2nm2cPaXJq-72">
          <mxGeometry width="130" height="100" as="geometry" />
        </mxCell>
        <mxCell id="s8xCWeBZUh2nm2cPaXJq-74" value="PHD服务器" style="text;html=1;strokeColor=none;fillColor=none;align=center;verticalAlign=middle;whiteSpace=wrap;rounded=0;" vertex="1" parent="s8xCWeBZUh2nm2cPaXJq-72">
          <mxGeometry x="25" y="23.5" width="90" height="20" as="geometry" />
        </mxCell>
        <mxCell id="s8xCWeBZUh2nm2cPaXJq-75" value="" style="fontColor=#0066CC;verticalAlign=top;verticalLabelPosition=bottom;labelPosition=center;align=center;html=1;outlineConnect=0;fillColor=#CCCCCC;strokeColor=#6881B3;gradientColor=none;gradientDirection=north;strokeWidth=2;shape=mxgraph.networks.storage;" vertex="1" parent="1">
          <mxGeometry x="556" y="440" width="60" height="70" as="geometry" />
        </mxCell>
        <mxCell id="s8xCWeBZUh2nm2cPaXJq-76" value="数据库服务器" style="text;html=1;strokeColor=none;fillColor=none;align=center;verticalAlign=middle;whiteSpace=wrap;rounded=0;" vertex="1" parent="1">
          <mxGeometry x="546" y="420" width="90" height="20" as="geometry" />
        </mxCell>
        <mxCell id="s8xCWeBZUh2nm2cPaXJq-77" style="edgeStyle=orthogonalEdgeStyle;rounded=0;orthogonalLoop=1;jettySize=auto;html=1;strokeColor=#663300;fillColor=#663300;strokeWidth=5;" edge="1" parent="1" source="s8xCWeBZUh2nm2cPaXJq-73" target="s8xCWeBZUh2nm2cPaXJq-66">
          <mxGeometry relative="1" as="geometry" />
        </mxCell>
        <mxCell id="s8xCWeBZUh2nm2cPaXJq-78" value="" style="endArrow=none;dashed=1;html=1;dashPattern=1 3;strokeWidth=2;fillColor=#663300;" edge="1" parent="1">
          <mxGeometry width="50" height="50" relative="1" as="geometry">
            <mxPoint x="524" y="412" as="sourcePoint" />
            <mxPoint x="654" y="412" as="targetPoint" />
          </mxGeometry>
        </mxCell>
        <mxCell id="s8xCWeBZUh2nm2cPaXJq-79" value="&lt;b&gt;&lt;font style=&quot;font-size: 14px&quot;&gt;榆林炼油厂&lt;/font&gt;&lt;/b&gt;" style="text;html=1;strokeColor=none;fillColor=none;align=center;verticalAlign=middle;whiteSpace=wrap;rounded=0;" vertex="1" parent="1">
          <mxGeometry x="549" y="680" width="80" height="20" as="geometry" />
        </mxCell>
        <mxCell id="s8xCWeBZUh2nm2cPaXJq-80" value="" style="rounded=0;whiteSpace=wrap;html=1;fillColor=none;" vertex="1" parent="1">
          <mxGeometry x="674" y="310" width="130" height="210" as="geometry" />
        </mxCell>
        <mxCell id="s8xCWeBZUh2nm2cPaXJq-81" value="" style="fontColor=#0066CC;verticalAlign=top;verticalLabelPosition=bottom;labelPosition=center;align=center;html=1;outlineConnect=0;fillColor=#CCCCCC;strokeColor=#6881B3;gradientColor=none;gradientDirection=north;strokeWidth=2;shape=mxgraph.networks.patch_panel;" vertex="1" parent="1">
          <mxGeometry x="684" y="350" width="100" height="35" as="geometry" />
        </mxCell>
        <mxCell id="s8xCWeBZUh2nm2cPaXJq-82" value="iweb应用服务器" style="text;html=1;strokeColor=none;fillColor=none;align=center;verticalAlign=middle;whiteSpace=wrap;rounded=0;" vertex="1" parent="1">
          <mxGeometry x="689" y="320" width="90" height="20" as="geometry" />
        </mxCell>
        <mxCell id="s8xCWeBZUh2nm2cPaXJq-83" value="" style="group" vertex="1" connectable="0" parent="1">
          <mxGeometry x="674" y="563.5" width="130" height="100" as="geometry" />
        </mxCell>
        <mxCell id="s8xCWeBZUh2nm2cPaXJq-84" value="" style="fontColor=#0066CC;verticalAlign=top;verticalLabelPosition=bottom;labelPosition=center;align=center;html=1;outlineConnect=0;fillColor=#CCCCCC;strokeColor=#6881B3;gradientColor=none;gradientDirection=north;strokeWidth=2;shape=mxgraph.networks.patch_panel;" vertex="1" parent="s8xCWeBZUh2nm2cPaXJq-83">
          <mxGeometry x="15" y="52.5" width="100" height="35" as="geometry" />
        </mxCell>
        <mxCell id="s8xCWeBZUh2nm2cPaXJq-85" value="" style="group" vertex="1" connectable="0" parent="s8xCWeBZUh2nm2cPaXJq-83">
          <mxGeometry width="130" height="100" as="geometry" />
        </mxCell>
        <mxCell id="s8xCWeBZUh2nm2cPaXJq-86" value="" style="group" vertex="1" connectable="0" parent="s8xCWeBZUh2nm2cPaXJq-85">
          <mxGeometry y="-1" width="130" height="100" as="geometry" />
        </mxCell>
        <mxCell id="s8xCWeBZUh2nm2cPaXJq-87" value="" style="rounded=0;whiteSpace=wrap;html=1;fillColor=none;" vertex="1" parent="s8xCWeBZUh2nm2cPaXJq-86">
          <mxGeometry width="130" height="100" as="geometry" />
        </mxCell>
        <mxCell id="s8xCWeBZUh2nm2cPaXJq-88" value="PHD服务器" style="text;html=1;strokeColor=none;fillColor=none;align=center;verticalAlign=middle;whiteSpace=wrap;rounded=0;" vertex="1" parent="s8xCWeBZUh2nm2cPaXJq-86">
          <mxGeometry x="25" y="23.5" width="90" height="20" as="geometry" />
        </mxCell>
        <mxCell id="s8xCWeBZUh2nm2cPaXJq-89" value="" style="fontColor=#0066CC;verticalAlign=top;verticalLabelPosition=bottom;labelPosition=center;align=center;html=1;outlineConnect=0;fillColor=#CCCCCC;strokeColor=#6881B3;gradientColor=none;gradientDirection=north;strokeWidth=2;shape=mxgraph.networks.storage;" vertex="1" parent="1">
          <mxGeometry x="706" y="440" width="60" height="70" as="geometry" />
        </mxCell>
        <mxCell id="s8xCWeBZUh2nm2cPaXJq-90" value="数据库服务器" style="text;html=1;strokeColor=none;fillColor=none;align=center;verticalAlign=middle;whiteSpace=wrap;rounded=0;" vertex="1" parent="1">
          <mxGeometry x="696" y="420" width="90" height="20" as="geometry" />
        </mxCell>
        <mxCell id="s8xCWeBZUh2nm2cPaXJq-91" style="edgeStyle=orthogonalEdgeStyle;rounded=0;orthogonalLoop=1;jettySize=auto;html=1;strokeColor=#663300;fillColor=#663300;strokeWidth=5;" edge="1" parent="1" source="s8xCWeBZUh2nm2cPaXJq-87" target="s8xCWeBZUh2nm2cPaXJq-80">
          <mxGeometry relative="1" as="geometry" />
        </mxCell>
        <mxCell id="s8xCWeBZUh2nm2cPaXJq-92" value="" style="endArrow=none;dashed=1;html=1;dashPattern=1 3;strokeWidth=2;fillColor=#663300;" edge="1" parent="1">
          <mxGeometry width="50" height="50" relative="1" as="geometry">
            <mxPoint x="674" y="412" as="sourcePoint" />
            <mxPoint x="804" y="412" as="targetPoint" />
          </mxGeometry>
        </mxCell>
        <mxCell id="s8xCWeBZUh2nm2cPaXJq-93" value="&lt;b&gt;&lt;font style=&quot;font-size: 14px&quot;&gt;油气化工厂公司&lt;/font&gt;&lt;/b&gt;" style="text;html=1;strokeColor=none;fillColor=none;align=center;verticalAlign=middle;whiteSpace=wrap;rounded=0;" vertex="1" parent="1">
          <mxGeometry x="689" y="680" width="105" height="20" as="geometry" />
        </mxCell>
        <mxCell id="s8xCWeBZUh2nm2cPaXJq-94" value="" style="shape=flexArrow;endArrow=classic;startArrow=classic;html=1;entryX=0.5;entryY=1;entryDx=0;entryDy=0;strokeColor=#663300;fillColor=#663300;" edge="1" parent="1">
          <mxGeometry width="100" height="100" relative="1" as="geometry">
            <mxPoint x="134" y="310" as="sourcePoint" />
            <mxPoint x="134" y="230" as="targetPoint" />
          </mxGeometry>
        </mxCell>
        <mxCell id="s8xCWeBZUh2nm2cPaXJq-95" value="" style="shape=flexArrow;endArrow=classic;startArrow=classic;html=1;entryX=0.5;entryY=1;entryDx=0;entryDy=0;strokeColor=#663300;fillColor=#663300;" edge="1" parent="1">
          <mxGeometry width="100" height="100" relative="1" as="geometry">
            <mxPoint x="284" y="310" as="sourcePoint" />
            <mxPoint x="284" y="230" as="targetPoint" />
          </mxGeometry>
        </mxCell>
        <mxCell id="s8xCWeBZUh2nm2cPaXJq-96" value="" style="shape=flexArrow;endArrow=classic;startArrow=classic;html=1;entryX=0.5;entryY=1;entryDx=0;entryDy=0;strokeColor=#663300;fillColor=#663300;" edge="1" parent="1">
          <mxGeometry width="100" height="100" relative="1" as="geometry">
            <mxPoint x="435" y="310" as="sourcePoint" />
            <mxPoint x="435" y="230" as="targetPoint" />
          </mxGeometry>
        </mxCell>
        <mxCell id="s8xCWeBZUh2nm2cPaXJq-97" value="" style="shape=flexArrow;endArrow=classic;startArrow=classic;html=1;entryX=0.5;entryY=1;entryDx=0;entryDy=0;strokeColor=#663300;fillColor=#663300;" edge="1" parent="1">
          <mxGeometry width="100" height="100" relative="1" as="geometry">
            <mxPoint x="584" y="310" as="sourcePoint" />
            <mxPoint x="584" y="230" as="targetPoint" />
          </mxGeometry>
        </mxCell>
        <mxCell id="s8xCWeBZUh2nm2cPaXJq-98" value="" style="shape=flexArrow;endArrow=classic;startArrow=classic;html=1;entryX=0.5;entryY=1;entryDx=0;entryDy=0;strokeColor=#663300;fillColor=#663300;" edge="1" parent="1">
          <mxGeometry width="100" height="100" relative="1" as="geometry">
            <mxPoint x="744" y="310" as="sourcePoint" />
            <mxPoint x="744" y="230" as="targetPoint" />
          </mxGeometry>
        </mxCell>
      </root>
    </mxGraphModel>
  </diagram>
</mxfile>
